<?xml version="1.0" encoding="utf-8"?>
<svg version="1.1" xmlns:xlink="http://www.w3.org/1999/xlink" width="335px" height="76px" xmlns="http://www.w3.org/2000/svg">
  <g>
    <path d="M 0 59.4406168553809  C 0 59.4406168553809  0 3  0 3  C 0 1.34314575050762  1.34314575050762 0  3 0  C 3 0  332 0  332 0  C 333.656854249492 0  335 1.34314575050762  335 3  C 335 3  335 59.4406168553809  335 59.4406168553809  C 335 61.0974711048733  333.656854249492 62.4406168553809  332 62.4406168553809  C 332 62.4406168553809  75.3354037267081 62.4406168553809  75.3354037267081 62.4406168553809  C 75.3354037267081 62.4406168553809  65.1620082815734 75.4426559242006  65.1620082815734 75.4426559242006  C 65.1620082815734 75.4426559242006  55.3354037267081 62.4406168553809  55.3354037267081 62.4406168553809  C 55.3354037267081 62.4406168553809  3 62.4406168553809  3 62.4406168553809  C 1.34314575050762 62.4406168553809  0 61.0974711048733  0 59.4406168553809  Z " fill-rule="nonzero" fill="#319ff0" stroke="none" fill-opacity="0.8" />
  </g>
</svg>