<?xml version="1.0" encoding="utf-8"?>
<svg version="1.1" xmlns:xlink="http://www.w3.org/1999/xlink" width="35px" height="35px" xmlns="http://www.w3.org/2000/svg">
  <g transform="matrix(1 0 0 1 -109 -241 )">
    <path d="M 110 258.5  A 16.5 16.5 0 0 1 126.5 242 A 16.5 16.5 0 0 1 143 258.5 A 16.5 16.5 0 0 1 126.5 275 A 16.5 16.5 0 0 1 110 258.5 Z " fill-rule="nonzero" fill="#ffffff" stroke="none" fill-opacity="0" />
    <path d="M 109.5 258.5  A 17 17 0 0 1 126.5 241.5 A 17 17 0 0 1 143.5 258.5 A 17 17 0 0 1 126.5 275.5 A 17 17 0 0 1 109.5 258.5 Z " stroke-width="1" stroke="#ffffff" fill="none" stroke-opacity="0.898039215686275" />
  </g>
</svg>