<?xml version="1.0" encoding="utf-8"?>
<svg version="1.1" xmlns:xlink="http://www.w3.org/1999/xlink" width="197px" height="45px" xmlns="http://www.w3.org/2000/svg">
  <g transform="matrix(1 0 0 1 0 -44 )">
    <path d="M 179.238567499428 44.5  C 179.238567499428 44.5  182.741056998721 44.900030526569  182.741056998721 44.900030526569  C 182.741056998721 44.900030526569  196.459586833545 66.5  196.459586833545 66.5  C 196.459586833545 66.5  182.741056998721 88.099969473431  182.741056998721 88.099969473431  C 182.741056998721 88.099969473431  179.238567499428 88.5  179.238567499428 88.5  C 179.238567499428 88.5  0.500000000000012 88.5  0.500000000000012 88.5  C 0.500000000000012 88.5  0.5 44.5  0.5 44.5  C 0.5 44.5  179.238567499428 44.5  179.238567499428 44.5  Z " fill-rule="nonzero" fill="#ffffff" stroke="none" />
    <path d="M 179.238567499428 44.5  C 179.238567499428 44.5  182.741056998721 44.900030526569  182.741056998721 44.900030526569  C 182.741056998721 44.900030526569  196.459586833545 66.5  196.459586833545 66.5  C 196.459586833545 66.5  182.741056998721 88.099969473431  182.741056998721 88.099969473431  C 182.741056998721 88.099969473431  179.238567499428 88.5  179.238567499428 88.5  C 179.238567499428 88.5  0.500000000000012 88.5  0.500000000000012 88.5  C 0.500000000000012 88.5  0.5 44.5  0.5 44.5  C 0.5 44.5  179.238567499428 44.5  179.238567499428 44.5  Z " stroke-width="1" stroke="#f2f2f2" fill="none" />
  </g>
</svg>