<?xml version="1.0" encoding="utf-8"?>
<svg version="1.1" xmlns:xlink="http://www.w3.org/1999/xlink" width="335px" height="160px" xmlns="http://www.w3.org/2000/svg">
  <g transform="matrix(1 0 0 1 -20 -192 )">
    <path d="M 20.5 331.551724137931  C 20.5 331.551724137931  20.5 197  20.5 197  C 20.5 194.514718625761  22.5147186257614 192.5  25 192.5  C 25 192.5  350 192.5  350 192.5  C 352.485281374239 192.5  354.5 194.514718625761  354.5 197  C 354.5 197  354.5 331.551724137931  354.5 331.551724137931  C 354.5 334.03700551217  352.485281374239 336.051724137931  350 336.051724137931  C 350 336.051724137931  209.829381924765 336.051724137931  209.829381924765 336.051724137931  C 209.829381924765 336.051724137931  189.99265838498 351.37388301004  189.99265838498 351.37388301004  C 189.99265838498 351.37388301004  169.164098668207 336.051724137931  169.164098668207 336.051724137931  C 169.164098668207 336.051724137931  25 336.051724137931  25 336.051724137931  C 22.5147186257614 336.051724137931  20.5 334.03700551217  20.5 331.551724137931  Z " fill-rule="nonzero" fill="#ffffff" stroke="none" />
    <path d="M 20 331.551724137931  C 20 331.551724137931  20 197  20 197  C 20 194.238576250846  22.238576250846 192  25 192  C 25 192  350 192  350 192  C 352.761423749154 192  355 194.238576250846  355 197  C 355 197  355 331.551724137931  355 331.551724137931  C 355 334.313147887085  352.761423749154 336.551724137931  350 336.551724137931  C 350 336.551724137931  210 336.551724137931  210 336.551724137931  C 210 336.551724137931  190 352  190 352  C 190 352  169 336.551724137931  169 336.551724137931  C 169 336.551724137931  25 336.551724137931  25 336.551724137931  C 22.238576250846 336.551724137931  20 334.313147887085  20 331.551724137931  Z M 21 331.551724137931  C 21 333.760863137254  22.7908610006768 335.551724137931  25 335.551724137931  C 25 335.551724137931  169.328197336413 335.551724137931  169.328197336413 335.551724137931  C 169.328197336413 335.551724137931  189.98531676996 350.747766020081  189.98531676996 350.747766020081  C 189.98531676996 350.747766020081  209.658763849529 335.551724137931  209.658763849529 335.551724137931  C 209.658763849529 335.551724137931  350 335.551724137931  350 335.551724137931  C 352.209138999323 335.551724137931  354 333.760863137254  354 331.551724137931  C 354 331.551724137931  354 197  354 197  C 354 194.790861000677  352.209138999323 193  350 193  C 350 193  25 193  25 193  C 22.7908610006768 193  21 194.790861000677  21 197  C 21 197  21 331.551724137931  21 331.551724137931  Z " fill-rule="nonzero" fill="#e4e4e4" stroke="none" />
  </g>
</svg>