<?xml version="1.0" encoding="utf-8"?>
<svg version="1.1" xmlns:xlink="http://www.w3.org/1999/xlink" width="60px" height="60px" xmlns="http://www.w3.org/2000/svg">
  <g transform="matrix(1 0 0 1 -18 -629 )">
    <path d="M 48 629  C 64.8 629  78 642.2  78 659  C 78 675.8  64.8 689  48 689  C 31.2 689  18 675.8  18 659  C 18 642.2  31.2 629  48 629  Z " fill-rule="nonzero" fill="#ffffff" stroke="none" />
    <path d="M 48 629.5  C 64.52 629.5  77.5 642.48  77.5 659  C 77.5 675.52  64.52 688.5  48 688.5  C 31.48 688.5  18.5 675.52  18.5 659  C 18.5 642.48  31.48 629.5  48 629.5  Z " stroke-width="1" stroke="#ffffff" fill="none" />
  </g>
</svg>